name analog
datacolumns 19
datarows 37
range 0.0 0.018000000000000002
endheader
time	ground_force_vx	ground_force_vy	ground_force_vz	ground_force_px	ground_force_py	ground_force_pz	l_ground_force_vx	l_ground_force_vy	l_ground_force_vz	l_ground_force_px	l_ground_force_py	l_ground_force_pz	ground_torque_x	ground_torque_y	ground_torque_z	l_ground_torque_x	l_ground_torque_y	l_ground_torque_z
0.0	-0.0	-0.0	-0.0	-4.052563667297363	16.12296485900879	-157.70724487304688	2.306480407714844	-17.48143196105957	-344.3258056640625	-0.0	-0.0	-0.0	-0.0	-0.0	-0.0	101029.4609375	16403.51953125	-601.3753051757812
0.0005	-0.0	-0.0	-0.0	-4.266114234924316	16.20575714111328	-160.54360961914062	2.442922592163086	-17.551055908203125	-344.0756225585937	-0.0	-0.0	-0.0	-0.0	-0.0	-0.0	101068.6640625	16452.53125	-625.6653442382812
0.001	-0.0	-0.0	-0.0	-4.314212322235107	15.865211486816406	-160.50619506835938	2.6861391067504883	-17.632530212402344	-344.1097106933594	-0.0	-0.0	-0.0	-0.0	-0.0	-0.0	100815.8515625	16397.33984375	-460.5966491699219
0.0015	-0.0	-0.0	-0.0	-4.622818470001221	16.18094253540039	-162.9775848388672	2.5159969329833984	-17.279096603393555	-342.86688232421875	-0.0	-0.0	-0.0	-0.0	-0.0	-0.0	100741.2265625	16038.5341796875	-579.781982421875
0.002	-0.0	-0.0	-0.0	-4.298309326171875	16.092042922973633	-162.39862060546875	2.395191192626953	-17.44753074645996	-342.7399597167969	-0.0	-0.0	-0.0	-0.0	-0.0	-0.0	100690.3984375	16364.927734375	-366.7738952636719
0.0025	-0.0	-0.0	-0.0	-4.4605255126953125	16.562000274658203	-162.78268432617188	2.628948926925659	-17.672077178955078	-342.0411682128906	-0.0	-0.0	-0.0	-0.0	-0.0	-0.0	100858.1640625	16345.95703125	-525.7459106445312
0.003	-0.0	-0.0	-0.0	-4.582428455352783	17.03885269165039	-162.2686309814453	2.7101166248321533	-17.736465454101562	-341.3132019042969	-0.0	-0.0	-0.0	-0.0	-0.0	-0.0	100447.28125	16223.2470703125	-474.7314758300781
0.0035	-0.0	-0.0	-0.0	-4.411267280578613	16.733003616333008	-162.55593872070312	2.549250841140747	-17.57601547241211	-341.2773742675781	-0.0	-0.0	-0.0	-0.0	-0.0	-0.0	100546.1015625	16393.421875	-531.1409912109375
0.004	-0.0	-0.0	-0.0	-4.516769886016846	16.789451599121094	-161.31106567382812	2.677724123001098	-17.455036163330078	-341.4967041015625	-0.0	-0.0	-0.0	-0.0	-0.0	-0.0	100444.0546875	16217.0166015625	-439.7625427246094
0.0045000000000000005	-0.0	-0.0	-0.0	-4.543328285217285	17.152530670166016	-163.96641540527344	2.95025634765625	-17.11800193786621	-341.12115478515625	-0.0	-0.0	-0.0	-0.0	-0.0	-0.0	100371.4453125	16341.87890625	-484.4986267089844
0.005	-0.0	-0.0	-0.0	-4.437809467315674	17.046602249145508	-162.30702209472656	2.7891244888305664	-17.670320510864258	-339.7659606933594	-0.0	-0.0	-0.0	-0.0	-0.0	-0.0	100244.46875	16143.23828125	-399.1989135742188
0.0055	-0.0	-0.0	-0.0	-3.902842521667481	16.784164428710938	-162.0208282470703	2.8221311569213867	-17.399372100830078	-339.92071533203125	-0.0	-0.0	-0.0	-0.0	-0.0	-0.0	99973.6953125	16614.27734375	-465.9259033203125
0.006	-0.0	-0.0	-0.0	-3.942036867141724	16.912683486938477	-162.6619873046875	2.9160256385803223	-17.062702178955078	-341.8194580078125	-0.0	-0.0	-0.0	-0.0	-0.0	-0.0	99931.921875	16500.0078125	-404.63568115234375
0.006500000000000001	-0.0	-0.0	-0.0	-4.142379760742188	17.279491424560547	-162.90248107910156	2.865384578704834	-17.437654495239258	-338.5917053222656	-0.0	-0.0	-0.0	-0.0	-0.0	-0.0	99723.8828125	16394.3515625	-477.0159301757813
0.007	-0.0	-0.0	-0.0	-4.014472961425781	17.07923698425293	-164.4965362548828	2.4502408504486084	-17.100893020629883	-339.5078430175781	-0.0	-0.0	-0.0	-0.0	-0.0	-0.0	99923.671875	16582.14453125	-536.5537109375
0.0075	-0.0	-0.0	-0.0	-3.42397689819336	17.151247024536133	-162.9673614501953	2.521902561187744	-17.34888458251953	-339.308837890625	-0.0	-0.0	-0.0	-0.0	-0.0	-0.0	99776.828125	16500.02734375	-607.1985473632812
0.008	-0.0	-0.0	-0.0	-3.27978777885437	17.078962326049805	-163.3872833251953	2.4877796173095703	-17.029193878173828	-337.6964111328125	-0.0	-0.0	-0.0	-0.0	-0.0	-0.0	99638.6484375	16511.5625	-590.1633911132812
0.0085	-0.0	-0.0	-0.0	-3.0331573486328125	16.811416625976562	-162.88375854492188	2.449814558029175	-16.991701126098633	-337.83087158203125	-0.0	-0.0	-0.0	-0.0	-0.0	-0.0	99796.7734375	16755.654296875	-590.1551513671875
0.009000000000000001	-0.0	-0.0	-0.0	-3.3728063106536865	17.253700256347656	-165.2329864501953	2.5181150436401367	-17.114212036132812	-337.9662780761719	-0.0	-0.0	-0.0	-0.0	-0.0	-0.0	99631.015625	16477.572265625	-500.0617980957031
0.0095	-0.0	-0.0	-0.0	-3.42165756225586	16.952028274536133	-166.41610717773438	2.3264708518981934	-17.296743392944336	-338.5307922363281	-0.0	-0.0	-0.0	-0.0	-0.0	-0.0	99615.9921875	16455.94921875	-566.3555297851562
0.01	-0.0	-0.0	-0.0	-3.7294979095458975	17.093217849731445	-166.41641235351562	2.237455368041992	-17.328231811523438	-338.32794189453125	-0.0	-0.0	-0.0	-0.0	-0.0	-0.0	99567.9609375	16672.400390625	-590.320556640625
0.0105	-0.0	-0.0	-0.0	-4.212475776672363	16.90216636657715	-166.40805053710938	2.5206542015075684	-17.168893814086914	-338.259765625	-0.0	-0.0	-0.0	-0.0	-0.0	-0.0	99515.2578125	16465.322265625	-626.2196044921875
0.011	-0.0	-0.0	-0.0	-4.248922348022461	16.537960052490234	-167.13040161132812	2.734365940093994	-17.382051467895508	-338.67706298828125	-0.0	-0.0	-0.0	-0.0	-0.0	-0.0	99554.6328125	16559.669921875	-542.818115234375
0.0115	-0.0	-0.0	-0.0	-4.105104446411133	17.04144859313965	-167.12924194335938	2.6075515747070312	-17.470300674438477	-339.5182800292969	-0.0	-0.0	-0.0	-0.0	-0.0	-0.0	99547.0546875	16484.28125	-596.31982421875
0.012	-0.0	-0.0	-0.0	-4.122406959533691	17.042613983154297	-167.19363403320312	2.466369152069092	-17.133365631103516	-338.8192138671875	-0.0	-0.0	-0.0	-0.0	-0.0	-0.0	99527.0625	16662.87109375	-501.0236511230469
0.0125	-0.0	-0.0	-0.0	-4.102969169616699	17.345775604248047	-163.4494171142578	2.431072235107422	-17.6292724609375	-337.62701416015625	-0.0	-0.0	-0.0	-0.0	-0.0	-0.0	99647.0078125	16624.75390625	-560.6981811523438
0.013000000000000001	-0.0	-0.0	-0.0	-4.675271511077881	16.685131072998047	-164.7224884033203	2.430884838104248	-17.399372100830078	-338.2597351074219	-0.0	-0.0	-0.0	-0.0	-0.0	-0.0	99620.84375	16648.080078125	-495.0436401367188
0.0135	-0.0	-0.0	-0.0	-4.442718982696533	17.237808227539062	-164.36988830566406	2.661303997039795	-17.805644989013672	-339.5150146484375	-0.0	-0.0	-0.0	-0.0	-0.0	-0.0	99789.6484375	16603.068359375	-566.2466430664062
0.014	-0.0	-0.0	-0.0	-4.210806846618652	17.07689094543457	-163.9464111328125	2.8209228515625	-17.75265884399414	-338.1190490722656	-0.0	-0.0	-0.0	-0.0	-0.0	-0.0	99706.4453125	16692.919921875	-399.9207153320313
0.0145	-0.0	-0.0	-0.0	-3.979191303253174	16.827686309814453	-164.16015625	2.9975647926330566	-17.82388687133789	-338.4687194824219	-0.0	-0.0	-0.0	-0.0	-0.0	-0.0	99828.78125	16726.193359375	-477.2596435546875
0.015	-0.0	-0.0	-0.0	-3.8371102809906006	16.828664779663086	-163.09765625	2.5557518005371094	-17.876747131347656	-340.21075439453125	-0.0	-0.0	-0.0	-0.0	-0.0	-0.0	99569.28125	16736.8671875	-542.3139038085938
0.0155	-0.0	-0.0	-0.0	-3.9266350269317623	16.969606399536133	-163.16912841796875	2.501926898956299	-18.156967163085938	-339.86083984375	-0.0	-0.0	-0.0	-0.0	-0.0	-0.0	99624.6796875	16721.943359375	-530.2849731445312
0.016	-0.0	-0.0	-0.0	-3.728651523590088	17.040342330932617	-163.58743286132812	2.75003433227539	-18.017623901367188	-339.8599853515625	-0.0	-0.0	-0.0	-0.0	-0.0	-0.0	99762.53125	16781.87109375	-519.0128784179688
0.0165	-0.0	-0.0	-0.0	-3.4426748752593994	16.52562713623047	-162.59898376464844	2.5384268760681152	-18.05381393432617	-338.89166259765625	-0.0	-0.0	-0.0	-0.0	-0.0	-0.0	99525.3359375	17048.71484375	-531.379150390625
0.017	-0.0	-0.0	-0.0	-3.0722641944885254	16.596569061279297	-163.30459594726562	2.5410964488983154	-17.965618133544922	-338.32794189453125	-0.0	-0.0	-0.0	-0.0	-0.0	-0.0	99323.8046875	16817.494140625	-494.8473815917969
0.0175	-0.0	-0.0	-0.0	-3.2327985763549805	16.722551345825195	-162.4627685546875	2.538837432861328	-17.983997344970703	-339.0262451171875	-0.0	-0.0	-0.0	-0.0	-0.0	-0.0	99612.625	16944.076171875	-501.8801574707031
0.018000000000000002	-0.0	-0.0	-0.0	-3.0886025428771973	17.01751708984375	-163.74180603027344	2.801969051361084	-17.877595901489258	-338.0511474609375	-0.0	-0.0	-0.0	-0.0	-0.0	-0.0	99316.78125	16773.7734375	-565.0850830078125
